<?xml version="1.0" encoding="iso-8859-1"?>
<!-- Generator: Adobe Illustrator 19.0.0, SVG Export Plug-In . SVG Version: 6.00 Build 0)  -->
<svg version="1.1" id="Capa_1" xmlns="http://www.w3.org/2000/svg" xmlns:xlink="http://www.w3.org/1999/xlink" x="0px" y="0px"
	 viewBox="0 0 512 512" style="enable-background:new 0 0 512 512;" xml:space="preserve">
<circle style="fill:#434D70;" cx="256" cy="255.999" r="255.999"/>
<g>
	<path style="fill:#3C435B;" d="M17.51,190.381c-1.003-4.42-2.873-8.589-5.454-12.257c-5.047,15.788-8.589,32.235-10.47,49.194
		C15.023,218.875,20.707,204.424,17.51,190.381z M170.085,168.428c-8.965-16.185-25.778-25.328-43.091-25.328
		c-8.056,0-16.217,1.975-23.74,6.144c-19.435,10.762-26.624,34.628-16.363,54.324c4.211,8.077,11.4,13.991,20.24,16.645
		c8.934,2.696,18.725,1.651,26.864-2.863c7.743-4.284,13.27-11.421,15.485-20.01c2.121-8.202,0.648-16.927-3.459-24.346
		l-0.784-1.411c-1.546-2.779-4.827-4.284-7.847-3.302c-4.065,1.327-5.726,5.904-3.762,9.446l1.097,1.996
		c5.078,9.153,2.142,20.961-6.99,26.081c-5.078,2.853-11.222,3.521-16.823,1.839c-5.423-1.63-9.822-5.235-12.372-10.146
		c-6.949-13.322-2.079-29.477,11.076-36.759c17.377-9.634,39.351-3.323,48.974,14.054c12.476,22.518,4.305,50.98-18.213,63.457
		c-16.238,8.997-35.819,9.028-52.506,1.975c-16.886-7.126-28.139-23.552-29.497-41.838c-1.62-21.734-12.884-42.465-32.172-55.379
		c-1.964,3.992-3.824,8.046-5.59,12.152c0.669,0.439,1.306,0.909,1.912,1.379c10.616,8.296,18.087,19.853,21.285,33.155
		c1.337,5.538,1.818,11.348,1.452,17.209c-0.94,14.984-9.373,28.296-21.504,37.146c-9.947,7.262-18.004,16.98-23.259,28.254
		c1.745,27.867,7.962,54.512,17.92,79.255c9.853,7.158,21.974,11.389,35.067,11.389c27.115,0,49.173-22.058,49.173-49.162
		c0-22.214-17.398-40.061-39.591-40.636c-9.08-0.272-17.763,3.187-24.377,9.634c-6.551,6.395-10.365,15.245-10.512,24.367
		c-0.272,17.899,15.13,32.538,33.029,32.538h1.432c3.438,0,6.572-2.476,6.907-5.893c0.397-3.929-2.675-7.241-6.531-7.241h-2.111
		c-10.407,0-19.613-8.505-19.592-18.913c0.01-5.778,2.393-11.41,6.551-15.454c4.044-3.95,9.3-6.019,14.869-5.904
		c15.015,0.376,26.791,12.466,26.791,27.502c0,19.863-16.165,36.028-36.038,36.028c-25.736,0-46.686-20.94-46.686-46.675
		c0-15.318,5.768-29.309,15.245-39.915c14.723-16.478,38.734-20.166,58.838-10.992c20.396,9.31,44.795,9.185,65.86-2.487
		C175.592,233.755,186.062,197.277,170.085,168.428z"/>
	<path style="fill:#3C435B;" d="M491.527,252.228c6.489,2.967,13.385,4.974,20.449,5.945c0.01-0.721,0.01-1.452,0.01-2.173
		c0-3.96-0.094-7.889-0.272-11.807c-4.524-0.846-8.955-2.173-13.197-3.971c-16.885-7.126-28.139-23.552-29.497-41.838
		c-1.693-22.685-13.887-44.272-34.732-57.03c-9.519-5.82-20.219-8.808-31.107-8.808c-4.692,0-9.425,0.554-14.117,1.682
		c-12.57,3.03-23.573,9.874-31.733,19.602c-10.094,12.016-14.723,28.003-11.4,43.353c1.943,9.007,6.259,17.094,12.445,23.562
		c13.437,14.064,34.116,17.209,51.283,8.056c15.276-8.14,21.891-23.51,18.495-38.421c-2.027-8.923-7.586-16.791-15.287-21.682
		c-15.12-9.571-35.652-4.086-44.993,11.18l-0.763,1.243c-1.787,2.926-1.317,6.886,1.432,8.955c3.145,2.393,7.575,1.494,9.582-1.787
		l1.191-1.954c5.465-8.923,17.178-12.194,26.133-6.771c4.995,3.009,8.599,8.025,9.906,13.73c1.254,5.517,0.282,11.118-2.727,15.767
		c-8.161,12.612-24.607,16.353-37.439,8.495c-10.574-6.468-17.084-17.732-17.283-30.689c-0.094-6.907,2.058-13.688,5.757-19.519
		c6.959-10.951,17.941-18.422,30.824-20.856c11.776-2.226,29.236,2.654,38.682,10.041c10.616,8.296,18.087,19.853,21.285,33.155
		c1.337,5.538,1.818,11.348,1.452,17.209c-0.94,14.984-9.373,28.296-21.504,37.146c-18.223,13.312-30.083,34.837-30.083,59.089
		c0,32.977,26.833,59.81,59.81,59.81c10.616,0,20.459-3.385,28.505-9.132c7.649-18.484,13.197-38.055,16.342-58.42
		c-6.499-12.946-19.707-21.838-35.265-22.246c-9.08-0.272-17.763,3.187-24.377,9.634c-6.551,6.395-10.365,15.245-10.512,24.367
		c-0.272,17.899,15.13,32.538,33.029,32.538h1.431c3.438,0,6.572-2.476,6.907-5.893c0.397-3.929-2.675-7.241-6.531-7.241h-2.111
		c-10.407,0-19.613-8.505-19.592-18.913c0.01-5.778,2.393-11.41,6.551-15.454c4.044-3.95,9.3-6.019,14.869-5.904
		c15.015,0.376,26.791,12.466,26.791,27.502c0,19.863-16.165,36.028-36.038,36.028c-25.736,0-46.686-20.94-46.686-46.675
		c0-15.318,5.768-29.309,15.245-39.915C447.411,246.743,471.423,243.054,491.527,252.228z M508.893,216.096
		c-2.602-16.614-6.792-32.684-12.424-48.076c-4.963,10.951-4.963,23.97,1.066,35.547
		C500.22,208.719,504.128,213.003,508.893,216.096z"/>
	<path style="fill:#3C435B;" d="M372.795,293.815c-8.965-16.185-25.778-25.328-43.091-25.328c-8.056,0-16.217,1.975-23.74,6.144
		c-19.435,10.762-26.624,34.628-16.363,54.324c4.211,8.077,11.4,13.991,20.24,16.645c8.934,2.696,18.725,1.651,26.864-2.863
		c7.743-4.284,13.27-11.421,15.485-20.01c2.121-8.202,0.648-16.927-3.459-24.346l-0.784-1.411c-1.546-2.779-4.827-4.284-7.847-3.302
		c-4.065,1.327-5.726,5.904-3.762,9.446l1.097,1.996c5.078,9.153,2.142,20.961-6.99,26.081c-5.078,2.853-11.222,3.521-16.823,1.839
		c-5.423-1.63-9.822-5.235-12.372-10.146c-6.949-13.322-2.079-29.477,11.076-36.759c17.377-9.634,39.351-3.323,48.974,14.054
		c12.476,22.517,4.305,50.98-18.213,63.457c-16.238,8.997-35.819,9.028-52.506,1.975c-16.886-7.126-28.139-23.552-29.497-41.838
		c-1.693-22.685-13.887-44.272-34.732-57.03c-9.519-5.82-20.219-8.808-31.107-8.808c-4.692,0-9.425,0.554-14.117,1.682
		c-12.57,3.03-23.573,9.874-31.733,19.602c-10.094,12.016-14.723,28.003-11.4,43.353c1.943,9.007,6.259,17.094,12.445,23.562
		c13.437,14.064,34.116,17.209,51.283,8.056c15.276-8.14,21.891-23.51,18.495-38.421c-2.027-8.923-7.586-16.791-15.287-21.682
		c-15.12-9.571-35.652-4.086-44.993,11.18l-0.763,1.243c-1.787,2.926-1.317,6.886,1.432,8.955c3.145,2.393,7.575,1.494,9.582-1.787
		l1.191-1.954c5.465-8.923,17.178-12.194,26.133-6.771c4.995,3.009,8.599,8.025,9.906,13.73c1.254,5.517,0.282,11.118-2.727,15.767
		c-8.161,12.612-24.607,16.353-37.439,8.495c-10.574-6.468-17.084-17.732-17.283-30.689c-0.094-6.907,2.058-13.688,5.757-19.519
		c6.959-10.951,17.941-18.422,30.824-20.856c11.776-2.226,29.236,2.654,38.682,10.041c10.616,8.296,18.087,19.853,21.285,33.155
		c1.337,5.538,1.818,11.348,1.452,17.209c-0.94,14.984-9.373,28.296-21.504,37.146c-18.223,13.312-30.083,34.837-30.083,59.089
		c0,32.977,26.833,59.81,59.81,59.81c27.115,0,49.173-22.058,49.173-49.162c0-22.215-17.397-40.061-39.591-40.636
		c-9.08-0.272-17.763,3.187-24.377,9.634c-6.552,6.395-10.365,15.245-10.512,24.367c-0.272,17.899,15.13,32.538,33.029,32.538h1.432
		c3.438,0,6.572-2.476,6.907-5.893c0.397-3.929-2.675-7.241-6.531-7.241h-2.111c-10.407,0-19.613-8.505-19.592-18.913
		c0.01-5.778,2.393-11.41,6.551-15.454c4.044-3.95,9.3-6.019,14.869-5.904c15.015,0.376,26.791,12.466,26.791,27.502
		c0,19.863-16.165,36.028-36.038,36.028c-25.736,0-46.686-20.94-46.686-46.675c0-15.318,5.768-29.309,15.245-39.915
		c14.723-16.478,38.734-20.166,58.838-10.992c20.396,9.31,44.795,9.185,65.86-2.487
		C378.302,359.142,388.772,322.665,372.795,293.815z"/>
	<path style="fill:#3C435B;" d="M220.22,29.739c-2.027-8.923-7.586-16.791-15.287-21.682c-1.296-0.815-2.623-1.526-3.992-2.121
		c-13.949,3.051-27.481,7.252-40.479,12.487c-0.178,0.272-0.355,0.543-0.522,0.815l-0.763,1.243
		c-1.787,2.926-1.317,6.886,1.432,8.955c3.145,2.393,7.575,1.494,9.582-1.787l1.191-1.954c5.465-8.923,17.178-12.194,26.133-6.771
		c4.995,3.009,8.599,8.025,9.906,13.73c1.254,5.517,0.282,11.118-2.727,15.767c-8.161,12.612-24.607,16.353-37.439,8.495
		c-10.574-6.468-17.084-17.732-17.283-30.689c-0.01-1.128,0.031-2.257,0.136-3.375c-4.441,2.017-8.808,4.159-13.103,6.416
		c0.146,2.435,0.47,4.859,0.993,7.272c1.943,9.007,6.259,17.094,12.445,23.562c13.437,14.064,34.116,17.209,51.283,8.056
		C217.001,60.02,223.616,44.649,220.22,29.739z M380.089,32.038c-4.765-2.644-9.623-5.141-14.566-7.481
		c5.496,20.25-3.281,42.433-22.434,53.049c-16.238,8.997-35.819,9.028-52.506,1.975c-16.886-7.126-28.139-23.552-29.497-41.838
		c-1.003-13.458-5.705-26.53-13.719-37.595c-5.454,0.178-10.856,0.522-16.206,1.045c7.481,7.638,12.8,17.189,15.36,27.857
		c1.337,5.538,1.818,11.348,1.452,17.209c-0.94,14.984-9.373,28.296-21.504,37.146c-18.223,13.312-30.083,34.837-30.083,59.089
		c0,32.977,26.833,59.81,59.81,59.81c27.115,0,49.173-22.058,49.173-49.162c0-22.214-17.397-40.061-39.591-40.636
		c-9.08-0.272-17.763,3.187-24.377,9.634c-6.551,6.395-10.365,15.245-10.512,24.367c-0.272,17.899,15.13,32.538,33.029,32.538h1.431
		c3.438,0,6.572-2.476,6.907-5.893c0.397-3.929-2.675-7.241-6.531-7.241h-2.111c-10.407,0-19.613-8.505-19.592-18.913
		c0.01-5.778,2.393-11.41,6.551-15.454c4.044-3.95,9.3-6.019,14.869-5.904c15.015,0.376,26.791,12.466,26.791,27.502
		c0,19.863-16.165,36.028-36.038,36.028c-25.736,0-46.686-20.94-46.686-46.675c0-15.318,5.768-29.309,15.245-39.915
		c14.723-16.478,38.734-20.166,58.838-10.992c20.396,9.31,44.795,9.185,65.86-2.487C370.58,77.386,381.855,54.68,380.089,32.038z
		 M351.375,18.37c0,0,0,0,0-0.01c-5.162-2.069-10.407-3.981-15.736-5.716c-0.293,1.463-0.084,3.03,0.7,4.441l1.097,1.996
		c5.078,9.153,2.142,20.961-6.99,26.081c-5.078,2.853-11.222,3.521-16.823,1.839c-5.423-1.63-9.822-5.235-12.372-10.146
		c-5.684-10.898-3.459-23.688,4.744-31.963c-4.869-0.972-9.791-1.797-14.764-2.476c-7.513,11.818-8.6,27.125-1.63,40.511
		c4.211,8.077,11.4,13.991,20.24,16.645c8.934,2.696,18.725,1.651,26.864-2.863c7.743-4.284,13.27-11.41,15.485-20.01
		C353.757,30.627,353.36,24.274,351.375,18.37z"/>
</g>
<path style="fill:#F43380;" d="M424.531,448.699c-32.883,28.787-73.216,49.298-117.718,58.253
	c-16.426,3.312-33.416,5.047-50.813,5.047c-0.763,0-1.526,0-2.288-0.021h-0.01c-63.645-0.554-121.741-24.336-166.232-63.279
	c12.288-33.876,38.975-60.834,72.662-73.498c7.617-2.863,15.59-4.995,23.834-6.311h0.01c6.374-1.014,12.925-1.546,19.592-1.546
	h104.866c6.113,0,12.11,0.449,17.983,1.306c0.543,0.073,1.087,0.157,1.62,0.24C372.757,376.016,409.474,407.165,424.531,448.699z"/>
<path style="fill:#E02D77;" d="M114.668,448.701c15.067-41.535,51.785-72.672,96.507-79.809c6.374-1.014,12.925-1.546,19.592-1.546
	h-27.209c-6.666,0-13.218,0.533-19.592,1.546c-44.722,7.137-81.439,38.275-96.507,79.809c6.864,6.008,14.055,11.651,21.536,16.907
	C111.078,459.782,113.02,454.109,114.668,448.701z"/>
<path style="fill:#757A89;" d="M135.373,234.749L135.373,234.749c-2.847,0-5.156-2.308-5.156-5.156v-3.608
	c0-2.847,2.308-5.156,5.156-5.156l0,0c2.847,0,5.156,2.308,5.156,5.156v3.608C140.529,232.441,138.22,234.749,135.373,234.749z"/>
<path style="fill:#E02D77;" d="M306.81,506.953c-16.426,3.312-33.416,5.047-50.813,5.047c-0.763,0-1.526,0-2.288-0.021h-0.01
	c-31.326-28.348-78.148-81.899-69.736-143.088h0.01c6.374-1.014,12.925-1.546,19.592-1.546h2.132l-1.891,9.812
	C203.804,427.646,306.81,506.953,306.81,506.953z"/>
<path style="fill:#F9CCB2;" d="M308.407,320.453v51.829c0,28.955-23.462,52.418-52.406,52.418c-8.967,0-17.404-2.251-24.778-6.22
	c-4.547-2.423-8.679-5.516-12.291-9.128c-8.414-8.414-13.975-19.665-15.13-32.198c-0.139-1.604-0.219-3.232-0.219-4.87v-51.829
	h104.824V320.453z"/>
<g>
	<path style="fill:#E5B59C;" d="M308.407,335.456v26.763c-16.18,8.482-34.599,13.295-54.137,13.295
		c-1.858,0-3.716-0.046-5.563-0.139c-0.265-0.011-0.519-0.023-0.773-0.023c-9.187,0-16.711,7.524-16.711,16.803v26.324
		c-4.547-2.423-8.679-5.516-12.291-9.128c-8.414-8.414-13.975-19.665-15.13-32.198c-0.139-1.604-0.219-3.232-0.219-4.87v-36.826
		H308.407z"/>
	<circle style="fill:#E5B59C;" cx="154.373" cy="221.967" r="32.392"/>
	<circle style="fill:#E5B59C;" cx="357.616" cy="221.967" r="32.392"/>
</g>
<path style="fill:#F9CCB2;" d="M372.704,174.184v73.08c0,32.235-13.061,61.409-34.189,82.526c-1.839,1.839-3.741,3.615-5.695,5.319
	c-1.034,0.899-2.079,1.787-3.145,2.644c-20.083,16.394-45.735,26.216-73.686,26.216c-39.163,0-73.832-19.299-94.991-48.901
	c-13.678-19.111-21.713-42.517-21.713-67.803v-73.08c0-64.46,52.255-116.704,116.704-116.704
	C320.449,57.48,372.704,109.725,372.704,174.184z"/>
<g>
	<path style="fill:#E5B59C;" d="M288.731,222.562c0,0-2.398,11.746,19.065,20.075c0.963,0.374,2.06,0.155,2.79-0.576l0,0
		c1.138-1.138,0.984-3.038-0.343-3.948c-2.915-1.998-6.932-5.945-5.537-11.975"/>
	<path style="fill:#E5B59C;" d="M230.663,222.562c0,0,2.398,11.746-19.065,20.075c-0.963,0.374-2.059,0.155-2.79-0.576l0,0
		c-1.138-1.138-0.984-3.038,0.343-3.948c2.915-1.998,6.932-5.945,5.537-11.975"/>
	<path style="fill:#E5B59C;" d="M230.663,216.418c-0.65,5.379-5.398,9.328-10.816,9.328h-28.157c-2.94,0-5.604-1.189-7.533-3.118
		c-2.208-2.214-3.457-5.396-3.039-8.855c0.65-5.379,5.397-9.328,10.816-9.328h28.157c2.94,0,5.604,1.189,7.533,3.118
		C229.834,209.776,231.082,212.958,230.663,216.418z"/>
</g>
<path style="fill:#FFFFFF;" d="M230.663,223.886c-0.65,5.379-5.398,9.328-10.816,9.328h-28.157c-2.94,0-5.604-1.189-7.533-3.118
	c-2.208-2.214-3.457-5.396-3.039-8.855c0.65-5.379,5.397-9.328,10.816-9.328h28.157c2.94,0,5.604,1.189,7.533,3.118
	C229.834,217.244,231.082,220.426,230.663,223.886z"/>
<path style="fill:#E5B59C;" d="M327.782,204.443h-28.4c-5.882,0-10.65,4.768-10.65,10.65l0,0c0,5.882,4.768,10.65,10.65,10.65h28.4
	c5.882,0,10.65-4.768,10.65-10.65l0,0C338.432,209.212,333.664,204.443,327.782,204.443z"/>
<path style="fill:#FFFFFF;" d="M327.782,211.912h-28.4c-5.882,0-10.65,4.768-10.65,10.65l0,0c0,5.882,4.768,10.65,10.65,10.65h28.4
	c5.882,0,10.65-4.768,10.65-10.65l0,0C338.432,216.68,333.664,211.912,327.782,211.912z"/>
<path style="fill:#F2EBEC;" d="M336.994,177.566h-46.825c-3.315,0-6.003,6.549-6.003,14.629l0,0c0,8.079,2.687,14.629,6.003,14.629
	h46.825c3.315,0,6.003-6.549,6.003-14.629l0,0C342.997,184.116,340.309,177.566,336.994,177.566z"/>
<g>
	<path style="fill:#50BC65;" d="M220.058,219.048c0,7.822-6.343,14.166-14.166,14.166c-7.822,0-14.166-6.343-14.166-14.166
		c0-2.604,0.704-5.042,1.935-7.136h24.461C219.353,214.006,220.058,216.444,220.058,219.048z"/>
	<path style="fill:#50BC65;" d="M327.747,219.048c0,7.822-6.343,14.166-14.166,14.166c-7.822,0-14.166-6.343-14.166-14.166
		c0-2.604,0.704-5.042,1.935-7.136h24.461C327.043,214.006,327.747,216.444,327.747,219.048z"/>
</g>
<path style="fill:#E5B59C;" d="M182.68,183.167c-3.305,0-6.141,2.586-6.2,5.89c-0.062,3.367,2.649,6.115,6.002,6.115h32.896
	c13.062,0,23.65,10.589,23.65,23.65v58.596h5.96c7.656,0,13.863-6.207,13.863-13.863v-62.329c0-9.975-8.086-18.061-18.061-18.061
	h-58.11V183.167z"/>
<path style="fill:#F2EBEC;" d="M229.504,177.566H182.68c-3.315,0-6.003,6.549-6.003,14.629l0,0c0,8.079,2.687,14.629,6.003,14.629
	h46.825c3.315,0,6.003-6.549,6.003-14.629l0,0C235.506,184.116,232.819,177.566,229.504,177.566z"/>
<path style="fill:#E5B59C;" d="M166.44,247.267v-73.084c0-60.758,41.205-110.663,100.519-116.19
	c-3.61-0.336-7.265-0.516-10.964-0.516l0,0c-64.455,0-116.707,52.251-116.707,116.706v73.084
	c0,64.455,52.251,116.707,116.707,116.707l0,0c3.698,0,7.354-0.18,10.964-0.516C207.645,357.93,166.44,308.025,166.44,247.267z"/>
<path style="fill:#E02D77;" d="M327.042,388.576c0,98.158-83.592,113.256-83.592,113.256s-83.592-15.099-83.592-113.256
	c0-4.65,0.094-9.111,0.272-13.375c7.617-2.863,15.59-4.995,23.834-6.311h0.01c6.374-1.014,12.925-1.546,19.592-1.546h104.866
	c6.113,0,12.11,0.449,17.983,1.306C326.823,374.846,327.042,381.471,327.042,388.576z"/>
<path style="fill:#F2EBEC;" d="M386.473,161.343c2.915,3.48,4.66,7.952,4.66,12.842c0,11.065-8.965,20.031-20.031,20.031
	c-11.065,0-20.031-8.965-20.031-20.031c0-3.051,0.7-5.935,1.923-8.526c-9.592-4.932-16.154-14.932-16.154-26.467
	c0-1.432,0.104-2.832,0.303-4.211c-15.83-2.487-28.223-15.318-30.062-31.357c-3.26,0.972-6.708,1.505-10.282,1.505
	c-10.439,0-19.843-4.462-26.405-11.577c-4.441,1.839-9.3,2.863-14.399,2.863c-5.099,0-9.968-1.024-14.399-2.863
	c-6.572,7.116-15.966,11.577-26.415,11.577c-3.574,0-7.022-0.533-10.282-1.505c-1.839,16.039-14.221,28.87-30.051,31.357
	c0.199,1.379,0.303,2.779,0.303,4.211c0,11.536-6.562,21.535-16.154,26.467c1.212,2.591,1.912,5.475,1.912,8.526
	c0,11.065-8.965,20.031-20.031,20.031c-11.065,0-20.031-8.965-20.031-20.031c0-4.89,1.755-9.362,4.66-12.842
	c-6.071-5.444-9.885-13.354-9.885-22.152c0-12.873,8.171-23.834,19.613-27.982c-1.275-3.678-1.975-7.617-1.975-11.724
	c0-19.853,16.091-35.944,35.944-35.944c3.574,0,7.022,0.533,10.282,1.505c2.048-17.899,17.251-31.807,35.694-31.807
	c4.044,0,7.931,0.679,11.557,1.912c6.896-8.516,17.439-13.97,29.257-13.97s22.35,5.454,29.247,13.97
	c3.626-1.233,7.513-1.912,11.557-1.912c18.453,0,33.646,13.908,35.704,31.807c3.25-0.972,6.698-1.505,10.271-1.505
	c19.853,0,35.944,16.091,35.944,35.944c0,4.106-0.7,8.046-1.964,11.724c11.431,4.148,19.613,15.109,19.613,27.982
	C396.368,147.99,392.544,155.899,386.473,161.343z"/>
<path style="fill:#E5B59C;" d="M334.294,327.491c0,2.696-0.522,5.266-1.473,7.617c-20.522,17.972-47.396,28.86-76.831,28.86
	c-39.163,0-73.832-19.299-94.991-48.901c2.654-3.479,6.416-6.081,10.752-7.304c-0.564-1.755-0.878-3.626-0.878-5.569
	c0-8.213,5.423-15.161,12.894-17.46c-0.272-1.024-0.428-2.09-0.428-3.197c0-7.043,5.716-12.758,12.758-12.758
	c2.581,0,4.995,0.784,7.001,2.1c2.215-3.751,6.301,4.17,10.971,4.17c3.396,0,6.468-9.113,8.746-6.96
	c1.902-0.272,3.824-0.502,5.768-0.679c5.559-0.522,11.243-0.679,16.959-0.679c0.825,0,1.661,0,2.487,0.01
	c6.875,0.063,8.453,10.847,15.015,11.798c2.278-2.163,5.35-3.49,8.746-3.49c4.671,0,8.746,2.529,10.971,6.28
	c2.006-1.317,4.409-2.1,7.001-2.1c7.043,0,12.758,5.716,12.758,12.758c0,1.108-0.157,2.173-0.428,3.197
	c7.471,2.299,12.894,9.247,12.894,17.46c0,1.943-0.313,3.814-0.878,5.569C322.737,320.638,334.294,318.098,334.294,327.491z"/>
<path style="fill:#E6DFE1;" d="M139.285,247.264c0,32.235,13.061,61.409,34.189,82.526c1.839,1.839,3.741,3.615,5.695,5.319
	c1.034,0.899,2.079,1.787,3.145,2.644l10.982,3.511l1.39-47.365c0,0-37.125-8.683-37.125-50.322L139.285,247.264z"/>
<path style="fill:#F2EBEC;" d="M344.74,327.495c0-9.4-6.331-17.305-14.956-19.73c0.563-1.759,0.874-3.629,0.874-5.575
	c0-8.215-5.426-15.161-12.889-17.455c0.265-1.025,0.421-2.094,0.421-3.202c0-7.044-5.71-12.754-12.754-12.754
	c-2.588,0-4.992,0.776-7.003,2.1c-2.219-3.755-6.298-6.281-10.975-6.281c-3.388,0-6.458,1.33-8.742,3.485
	c-6.566-0.943-13.365-1.283-20.24-1.345c-0.825-0.01-1.661-0.01-2.487-0.01c-5.716,0-11.4,0.157-16.959,0.679
	c-1.939,0.18-3.862,0.404-5.766,0.678c-2.284-2.156-5.355-3.487-8.745-3.487c-4.678,0-8.755,2.526-10.975,6.281
	c-2.01-1.325-4.416-2.1-7.003-2.1c-7.044,0-12.754,5.71-12.754,12.754c0,1.108,0.156,2.177,0.421,3.202
	c-7.463,2.295-12.889,9.24-12.889,17.455c0,1.946,0.31,3.816,0.874,5.575c-8.625,2.425-14.956,10.33-14.956,19.73
	c0,6.053,2.638,11.477,6.809,15.231c-1.076,9.25-1.651,19.607-1.651,31.219c0,98.158,83.592,113.256,83.592,113.256
	s83.592-15.099,83.592-113.256c0-11.613-0.576-21.967-1.652-31.218C342.1,338.975,344.74,333.55,344.74,327.495z"/>
<g>
	<path style="fill:#E6DFE1;" d="M255.879,487.183c-3.218-0.616-83.487-17.053-83.487-113.235c0-11.609,0.575-21.974,1.651-31.221
		c-4.169-3.751-6.802-9.174-6.802-15.235c0-9.394,6.332-17.303,14.952-19.728c-0.564-1.755-0.878-3.626-0.878-5.569
		c0-8.213,5.433-15.161,12.894-17.46c-0.272-1.024-0.418-2.09-0.418-3.197c0-7.043,5.705-12.758,12.748-12.758
		c2.57,0,4.953,0.773,6.949,2.069c-2.623,2.278-4.357,6.217-4.357,10.689c0,1.108,0.115,2.173,0.313,3.197
		c-5.622,2.299-9.707,9.247-9.707,17.46c0,1.943,0.23,3.814,0.658,5.569c-6.499,2.424-11.274,10.334-11.274,19.728
		c0,6.06,1.996,11.483,5.13,15.235c-0.805,9.247-1.243,19.613-1.243,31.221C193.007,469.806,253.068,486.451,255.879,487.183z"/>
	<path style="fill:#E6DFE1;" d="M213.487,270.847c0.052-0.042,0.094-0.084,0.146-0.125c-0.031,0.052-0.063,0.104-0.094,0.157
		C213.519,270.868,213.508,270.858,213.487,270.847z"/>
	<path style="fill:#E6DFE1;" d="M174.85,134.981c0.199,1.379,0.303,2.779,0.303,4.211c0,11.536-6.562,21.535-16.154,26.467
		c1.212,2.591,1.912,5.475,1.912,8.526c0,11.065-8.965,20.031-20.031,20.031c-11.065,0-20.031-8.965-20.031-20.031
		c0-4.89,1.755-9.362,4.66-12.842c-6.071-5.444-9.885-13.354-9.885-22.152c0-12.873,8.171-23.834,19.613-27.982
		c-1.275-3.678-1.975-7.617-1.975-11.724c0-19.853,16.091-35.944,35.944-35.944c3.574,0,7.022,0.533,10.282,1.505
		c-10.282-1.505-30.595,17.262-20.146,36.592s39.925,21.734,45.557,1.985C203.062,119.663,190.68,132.494,174.85,134.981z"/>
</g>
<polygon style="fill:#F2EBEC;" points="354.429,261.854 372.704,251.405 372.704,181.049 354.429,181.049 "/>
<g>
	<path style="fill:#E6DFE1;" d="M235.973,314.355c13.001-4.283,27.042-4.283,40.042,0c3.474,1.133,7.443-0.224,8.988-3.476l0,0
		c1.544-3.239-0.588-7.466-4.915-8.888c-15.645-5.156-32.543-5.156-48.189,0c-4.326,1.422-6.458,5.649-4.915,8.888l0,0
		C228.531,314.131,232.499,315.487,235.973,314.355z"/>
	<path style="fill:#E6DFE1;" d="M261.484,317.894h-10.979c-2.799,0-5.069,2.27-5.069,5.069l0,0c0,2.799,2.27,5.069,5.069,5.069
		h10.979c2.799,0,5.069-2.27,5.069-5.069l0,0C266.552,320.162,264.283,317.894,261.484,317.894z"/>
	<path style="fill:#E6DFE1;" d="M258.476,266.741c-1.432,6.123-6.928,10.679-13.49,10.679h-5.956v-10.01
		c5.559-0.522,11.243-0.679,16.959-0.679C256.815,266.731,257.651,266.731,258.476,266.741z"/>
</g>
<path style="fill:#F2EBEC;" d="M372.704,247.264c0,32.235-13.061,61.409-34.189,82.526c-1.839,1.839-3.741,3.615-5.695,5.319
	c-1.034,0.899-2.079,1.787-3.145,2.644l-10.982,3.511l-1.39-47.365c0,0,37.125-8.683,37.125-50.322L372.704,247.264z"/>
<polygon style="fill:#E6DFE1;" points="157.56,261.854 139.285,251.405 139.285,181.049 157.56,181.049 "/>
<g>
</g>
<g>
</g>
<g>
</g>
<g>
</g>
<g>
</g>
<g>
</g>
<g>
</g>
<g>
</g>
<g>
</g>
<g>
</g>
<g>
</g>
<g>
</g>
<g>
</g>
<g>
</g>
<g>
</g>
</svg>
